<?xml version="1.0" encoding="UTF-8"?>
<svg id="Layer_2" data-name="Layer 2" xmlns="http://www.w3.org/2000/svg" viewBox="0 0 250.54 259.83">
  <defs>
    <style>
      .cls-1 {
        fill: #050505;
      }

      .cls-2 {
        fill: #020202;
      }

      .cls-3, .cls-4 {
        fill: #fff;
      }

      .cls-4 {
        stroke: #fff;
        stroke-miterlimit: 10;
      }
    </style>
  </defs>
  <g id="favicon">
    <g>
      <g>
        <path class="cls-1" d="M3.02,132.77c3.86-12.36,7.72-24.71,11.57-37.07,3.26-10.45,6.57-21,11.85-30.48,9.98-17.92,26.25-30.78,42.43-42.62,12.02-8.79,24.69-17.49,39.09-20.14,8.86-1.63,17.93-.88,26.89-.12,4.06.34,8.29.74,11.79,2.95,3.81,2.41,6.22,6.6,8.72,10.48,10.67,16.51,25.81,29.75,43.15,37.73,7.8,3.59,16.05,6.15,23.43,10.63,17.12,10.38,27.98,31.33,27.06,52.17-.8,18.21-9.74,35.01-11.86,53.1-1.5,12.83.42,26.26-3.71,38.43-6.29,18.53-25.3,29.23-43.78,31.73-7.12.96-14.38.98-21.37,2.69-7.67,1.87-14.75,5.71-22.04,8.87-19,8.25-42.28,11.38-58.93-1.33-11-8.4-17.25-22.36-28.16-30.89-7.91-6.19-17.67-9.06-26.27-14.11C9.36,190.98-3.45,159.46,3.26,131.9"/>
        <path class="cls-2" d="M4.47,133.17c4.55-14.57,8.98-29.17,13.67-43.69,2.18-6.75,4.54-13.47,7.69-19.84,2.9-5.86,6.49-11.35,10.64-16.39,8.2-9.95,18.23-18.21,28.52-25.91s21.44-16.15,33.89-20.78c6.79-2.52,13.82-3.58,21.05-3.56,3.7,0,7.4.24,11.08.53,3.38.27,6.86.39,10.17,1.18,3.14.74,5.74,2.27,7.89,4.67,2.04,2.28,3.56,4.95,5.22,7.5,3.41,5.22,7.27,10.16,11.53,14.72,8.49,9.08,18.61,16.71,29.78,22.18,6.13,3.01,12.6,5.22,18.79,8.08,5.6,2.59,10.79,5.81,15.28,10.08,8.5,8.08,14.28,18.86,16.69,30.31,1.25,5.94,1.49,12.03.85,18.07-.73,6.82-2.52,13.48-4.44,20.04s-4.08,13.28-5.58,20.07-2.06,13.83-2.22,20.87c-.16,6.98-.12,14.05-1.56,20.92-1.21,5.78-3.55,11.16-7.08,15.9-6.58,8.83-16.62,14.72-27.05,17.84-5.96,1.78-12.03,2.44-18.21,2.98-3.63.32-7.27.67-10.84,1.36s-6.84,1.75-10.13,3.05c-6.29,2.49-12.26,5.7-18.59,8.1-5.77,2.19-11.76,3.85-17.87,4.73-11.55,1.68-23.8.32-33.66-6.31-10.2-6.87-16.04-18.24-24.33-27.02-4.37-4.63-9.48-8.17-15.15-11.04s-11.87-5.3-17.44-8.66c-18.69-11.29-29.66-33.4-30.06-54.91-.1-5.37.46-10.72,1.71-15.94.45-1.88-2.44-2.68-2.89-.8-5.3,22.02,1.23,46.44,16.4,63.19,3.69,4.07,7.93,7.67,12.59,10.59,5.64,3.53,11.86,5.95,17.79,8.92,5.85,2.93,11.01,6.51,15.45,11.33s7.9,9.85,11.86,14.76,8.03,9.25,13.19,12.58,10.92,5.37,16.89,6.29c12.11,1.87,24.57-.44,35.94-4.69,6.6-2.47,12.82-5.84,19.38-8.4,3.45-1.35,6.99-2.42,10.64-3.06s7.34-.92,11.02-1.25c6.27-.55,12.44-1.4,18.46-3.35,5.33-1.72,10.47-4.11,15.14-7.22,9.81-6.53,17.09-16.15,19.63-27.75,1.52-6.97,1.59-14.14,1.74-21.24s.66-14.49,2.28-21.65c3.13-13.77,8.75-26.97,10.07-41.13,1.13-12.11-1.55-24.4-7.38-35.06s-15-19.41-26.19-24.72c-6.44-3.05-13.21-5.33-19.61-8.47-5.62-2.76-10.98-6.06-15.98-9.83-10.35-7.78-18.79-17.49-25.76-28.35-1.69-2.63-3.46-5.32-5.83-7.39s-5.29-3.36-8.4-3.99c-3.48-.7-7.09-.87-10.62-1.14C126.68.2,122.82-.03,118.96,0c-7.15.06-14.17,1.17-20.89,3.67s-12.48,5.73-18.24,9.46-11.24,7.77-16.7,11.87c-5.2,3.9-10.32,7.91-15.18,12.21-9.94,8.8-18.8,18.94-24.72,30.91-3.26,6.6-5.73,13.56-7.99,20.56-2.34,7.26-4.57,14.55-6.84,21.83s-4.55,14.57-6.83,21.86c-.58,1.85,2.32,2.64,2.89.8h0Z"/>
      </g>
      <path class="cls-3" d="M13.55,132.86c4.23-13.07,8.35-26.17,12.72-39.2,2.05-6.11,4.29-12.18,7.27-17.91,2.75-5.27,6.15-10.17,10.04-14.65,7.69-8.87,16.99-16.16,26.49-22.98,9.85-7.07,20.01-14.44,31.59-18.4,6.17-2.11,12.53-2.93,19.03-2.89,3.37.02,6.73.23,10.09.49,3.07.24,6.21.34,9.22,1.04s5.3,2.03,7.31,4.23,3.37,4.58,4.97,6.92c3.2,4.68,6.8,9.08,10.77,13.13,7.89,8.06,17.22,14.76,27.43,19.56,5.63,2.65,11.55,4.6,17.23,7.14,5.18,2.31,10.01,5.18,14.19,9.03,7.69,7.07,13.05,16.54,15.31,26.73,1.18,5.33,1.42,10.79.83,16.21-.68,6.17-2.38,12.18-4.18,18.1s-3.78,11.87-5.16,17.94-1.86,12.43-2.01,18.76-.13,12.81-1.6,19.03c-1.21,5.12-3.51,9.92-6.86,13.99-6.4,7.8-15.65,12.83-25.28,15.47-5.6,1.54-11.3,2.01-17.07,2.52-6.56.57-12.83,1.68-18.99,4.08-5.72,2.24-11.2,5.04-16.98,7.13-5.21,1.88-10.61,3.31-16.11,4.08-10.58,1.48-21.84.37-30.99-5.5s-14.79-16.02-22.31-23.83c-4.03-4.19-8.7-7.42-13.91-9.99s-11.02-4.76-16.24-7.74c-17.15-9.79-27.72-29.38-28.17-48.92-.11-4.84.41-9.65,1.58-14.34.47-1.87-2.43-2.67-2.89-.8-4.97,19.94,1.36,42,15.47,56.81,3.46,3.64,7.42,6.83,11.74,9.4,5.23,3.11,10.96,5.24,16.42,7.9s10.15,5.87,14.28,10.23c3.89,4.11,7.21,8.7,10.83,13.04s7.54,8.31,12.33,11.25,10.01,4.68,15.44,5.49c11.21,1.68,22.74-.36,33.32-4.18,5.93-2.14,11.53-5.03,17.41-7.29,3.08-1.18,6.22-2.16,9.46-2.77s6.79-.91,10.2-1.2c5.76-.48,11.46-1.13,17.02-2.76,4.99-1.46,9.83-3.54,14.26-6.26,9.02-5.56,16.13-13.94,18.76-24.34,1.62-6.38,1.71-13.02,1.85-19.57s.55-12.93,2.02-19.31c2.86-12.36,8.09-24.14,9.39-36.85,1.12-10.94-1.38-22.05-6.78-31.6s-13.99-17.44-24.24-22.14c-5.87-2.69-12.03-4.69-17.88-7.43-5.29-2.47-10.34-5.46-15.07-8.88-9.49-6.86-17.34-15.46-23.81-25.18-1.58-2.38-3.23-4.81-5.43-6.68s-4.97-3.08-7.89-3.65c-3.18-.62-6.46-.77-9.68-1.01s-6.72-.45-10.09-.46c-6.59-.01-13.1.86-19.35,3-5.92,2.02-11.51,4.92-16.83,8.19-5.38,3.3-10.53,6.95-15.65,10.63s-9.78,7.19-14.41,11.12c-9.17,7.77-17.45,16.75-23.03,27.47-3.03,5.82-5.33,11.98-7.42,18.19-2.22,6.57-4.3,13.19-6.44,19.79s-4.29,13.23-6.43,19.85c-.6,1.84,2.3,2.63,2.89.8h0Z"/>
      <g>
        <path class="cls-4" d="M98.85,128.22c-12.22-6.11-12.6-4.97-19.04-12.62-.98-1.17-7.9-13.41,4.82-12.5,8.03.57,10.93,10.61,19.62,8.26,5.92-1.6,6.11-8.93,4.24-13.54-4.93-12.16-16.33-16.78-29.26-15.76-13.14,1.04-25.67,11.83-26.53,22.54-1.58,19.6,15.66,23.86,20.74,27.13,6.29,4.04,12.67,6.69,13.76,12.77.48,2.68.02,6.64-2.39,8.18-3.82,2.43-10.71,1.93-18.35-4.39-3.18-2.63-10.5-.62-13.77,3.99-3.92,5.53.96,16.85,7.78,22.94,10.64,9.49,29.65,9.51,41.89,0,1.09-.85,13.62-10.89,12.37-25.13-1.23-14.01-15.24-21.54-15.89-21.86Z"/>
        <path class="cls-4" d="M176.94,91.3c-20.76-8.97-46.83,9.94-51.18,27.36-7.86,31.44,1.63,46.01,9.76,54.97,3.81,4.2-8.09,6.79-2.33,13.72,1.85,2.23,6.76,3.65,12.58-7.44,1.48-2.81,36.09,7.45,49.68-20.42,7.45-15.27,5.19-57.96-18.51-68.2ZM142.16,150.61c-3.24-.87-3.42-14.56,1.87-22.82,4.49-7.01,11.64-9.18,14-6.95,4.23,4.01-10.4,31.24-15.87,29.77ZM178.08,148.36c-4.28,9.26-14.77,13.04-17.42,10.45-4.36-4.26,10.11-30.3,16.27-28.83,3.48.83,4.71,10.66,1.15,18.38Z"/>
      </g>
    </g>
  </g>
</svg>