<?xml version="1.0" encoding="UTF-8"?>
<svg id="Layer_2" data-name="Layer 2" xmlns="http://www.w3.org/2000/svg" viewBox="0 0 292.34 194.76">
  <defs>
    <style>
      .cls-1 {
        fill: none;
        stroke: #000;
        stroke-miterlimit: 10;
      }
    </style>
  </defs>
  <g id="logo">
    <g>
      <g>
        <path d="M91.33,61.61c10.66,6.12,19.38,1.83,22.17-3.6,3.2-6.22.92-14.61-5.56-19.32-13.26-9.64-42.07-10.62-54.66,4.77-8.02,9.8-11.77,23.66-6.18,34.61,6.2,12.13,15.98,14.07,28.37,26.75,7.12,7.29,8.39,18.62,4.63,21.54-3.08,2.39-7.89,6.75-19.71-4.74-4.57-4.44-21.81-9.42-29.89,4.05-3.57,5.96-4.12,15.1,3.6,23.42,13,14.01,43.21,19.38,60.29,7.56,8.33-5.77,18.02-14.15,18.25-32.57.17-13.9-6.06-24.96-18.85-32.22-19.96-11.32-21.91-18-20.4-23.08,1.45-4.88,9.23-11.77,17.94-7.16Z"/>
        <path d="M252.82,79.29c-4.88-7.73,11.19-13.33-.06-23.79-4.92-4.57-11.46.02-18.4,5.85-2.54,2.14-29.76-13.56-49.51,12.81-14.69,19.62-.02,42.75-7.4,46.64-6.03,3.17-17.08-11.19-17.57-13.14-1.39-5.47,5.42-7.45,8.33-16.3,3.09-9.41,1.65-19.08-4.7-27.35-7.73-10.07-24.05-15.41-34.51-11.78-10.76,3.74-11.99,13.27-11.19,21.27,1.22,12.31,4.87,18.79,5.6,21.88,1.04,4.38,2.34,15.26-2.96,27.61-11.3,26.33-2.23,33.79,1.33,36.49,6.21,4.7,25.83,4.6,37.01-3.82,12.23-9.21,17.38-17.69,28.02-18.23,11.94-.61,14.65,11.41,29.51,14.19,11.93,2.24,28.12-2.18,35.73-12.7,19.21-26.56,6.86-50.01.79-59.63ZM139.48,69.79c5.91-1.75,15.83,4.71,14.92,13.87-1.07,10.77-10.83,12.79-14.83,11.22-7.18-2.81-6.43-23.22-.09-25.09ZM158.92,131.59c-1,9.29-10.82,12.36-19.14,11.47-8.93-.96-8.74-24.55,1.78-26.69,6.13-1.25,18.41,5.46,17.36,15.22ZM203.09,111.3c-4.17,3.29-8.09-21.29,3.77-31.19,8.49-7.09,20.87-6.25,21.03-1.13.09,2.88-20.42,28.86-24.8,32.32ZM238.03,122.14c-10.33,14.82-31.83,7.7-27.85.61,4.21-7.52,24.36-32.74,27.55-33.02,5.93-.53,8.95,20.01.3,32.42Z"/>
      </g>
      <path class="cls-1" d="M30,189.86c-35.2-10.61-38.65-53.34-11.68-96.74C30.79,73.04-2.03,48.4,30.36,16.11c24.57-24.49,42.81-17.09,81.21,1.18,19.74,9.4,34.45,15.09,52.87,13.59,32.47-2.64,47.27-18.85,73.85-14.78,25.93,3.98,40.94,24.97,36.41,40.08-9.09,30.31,21.52,42.57,16.61,67.59-4.61,23.51-25.87,41.84-43.43,50.98-24.15,12.58-32.64-15.62-75.15-8.75-20.93,3.38-47.95,40.1-73.61,24.36-25.16-15.43-52.28,4.58-69.12-.5Z"/>
    </g>
  </g>
</svg>